<svg xmlns="http://www.w3.org/2000/svg" width="1400" height="1400" viewBox="0 0 1400 1400" role="img" aria-label="PRINTKING PK">
      <rect width="1400" height="1400" fill="#f4f6f8"/>
      
          <rect x="45" y="45" width="1310" height="1310" fill="#cf202b"/>
          <rect x="80" y="80" width="1240" height="1240" fill="white"/>
          <polygon points="80,80 390,80 80,390" fill="#fff1f2"/>
          <polygon points="1320,1320 1000,1320 1320,1000" fill="#e5f8ff"/>
          <text x="700" y="190" text-anchor="middle" font-family="Arial Black, Impact, sans-serif" font-size="102" fill="white" stroke="#cf202b" stroke-width="9" paint-order="stroke">PRINTKING</text>
          <text x="700" y="300" text-anchor="middle" font-family="Arial Black, Impact, sans-serif" font-size="102" fill="white" stroke="#cf202b" stroke-width="9" paint-order="stroke">PK</text>
        
      
          <circle cx="700" cy="640" r="250" fill="#171b22"/>
          <path d="M470 795 C560 670 620 625 700 615 C785 605 870 540 945 430" fill="none" stroke="#00a6df" stroke-width="44"/>
          <path d="M520 815 C605 705 655 650 725 635 C795 620 870 570 930 500" fill="none" stroke="#ffd900" stroke-width="34"/>
          <text x="700" y="700" text-anchor="middle" font-family="Arial Black, sans-serif" font-size="210" fill="white">PK</text>
        
      <text x="700" y="1218" text-anchor="middle" font-family="Arial, sans-serif" font-size="48" font-weight="800" fill="#323a48">Printing Service</text>
      <text x="700" y="1282" text-anchor="middle" font-family="Arial Black, sans-serif" font-size="64" fill="#cf202b">PRINTKING</text>
    </svg>